<mxfile host="app.diagrams.net" agent="Mozilla/5.0 (Windows NT 10.0; Win64; x64) AppleWebKit/537.36 (KHTML, like Gecko) Chrome/139.0.0.0 Safari/537.36" version="28.2.0">
  <diagram name="Page-1" id="j1mJZ6CzVPzSqW4PU9dT">
    <mxGraphModel dx="1111" dy="465" grid="1" gridSize="10" guides="1" tooltips="1" connect="1" arrows="1" fold="1" page="1" pageScale="1" pageWidth="850" pageHeight="1100" math="0" shadow="0">
      <root>
        <mxCell id="0" />
        <mxCell id="1" parent="0" />
        <mxCell id="S6FOuybIhwKvVRD5kidw-1" value="" style="rounded=1;whiteSpace=wrap;html=1;fillColor=#0066CC;" vertex="1" parent="1">
          <mxGeometry x="40" y="40" width="240" height="170" as="geometry" />
        </mxCell>
        <mxCell id="S6FOuybIhwKvVRD5kidw-4" value="M1" style="ellipse;whiteSpace=wrap;html=1;aspect=fixed;fillColor=#99CCFF;strokeColor=none;" vertex="1" parent="1">
          <mxGeometry x="60" y="90" width="60" height="60" as="geometry" />
        </mxCell>
        <mxCell id="S6FOuybIhwKvVRD5kidw-5" value="M2" style="ellipse;whiteSpace=wrap;html=1;aspect=fixed;fillColor=#99CCFF;strokeColor=none;" vertex="1" parent="1">
          <mxGeometry x="130" y="90" width="60" height="60" as="geometry" />
        </mxCell>
        <mxCell id="S6FOuybIhwKvVRD5kidw-6" value="M3" style="ellipse;whiteSpace=wrap;html=1;aspect=fixed;fillColor=#99CCFF;strokeColor=none;" vertex="1" parent="1">
          <mxGeometry x="210" y="90" width="60" height="60" as="geometry" />
        </mxCell>
        <mxCell id="S6FOuybIhwKvVRD5kidw-7" value="&lt;b&gt;&lt;font style=&quot;font-size: 18px;&quot;&gt;MINERS&lt;/font&gt;&lt;/b&gt;" style="text;html=1;align=center;verticalAlign=middle;whiteSpace=wrap;rounded=0;strokeColor=none;" vertex="1" parent="1">
          <mxGeometry x="105" y="50" width="110" height="40" as="geometry" />
        </mxCell>
        <mxCell id="S6FOuybIhwKvVRD5kidw-8" value="&lt;b&gt;Computing Power&amp;nbsp;&lt;/b&gt;&lt;div&gt;&lt;b&gt;(Hash Calculations)&lt;/b&gt;&lt;/div&gt;" style="text;html=1;align=center;verticalAlign=middle;whiteSpace=wrap;rounded=0;" vertex="1" parent="1">
          <mxGeometry x="90" y="160" width="140" height="30" as="geometry" />
        </mxCell>
      </root>
    </mxGraphModel>
  </diagram>
</mxfile>
